<svg xmlns="http://www.w3.org/2000/svg" xmlns:xlink="http://www.w3.org/1999/xlink" width="274" zoomAndPan="magnify" viewBox="0 0 205.5 92.999996" height="124" preserveAspectRatio="xMidYMid meet" version="1.0"><defs><g/><clipPath id="bb76c7054f"><path d="M 0 2 L 69.582031 2 L 69.582031 71.191406 L 0 71.191406 Z M 0 2 " clip-rule="nonzero"/></clipPath><clipPath id="3d967ec512"><path d="M 140.875 69.777344 L 200.585938 69.777344 L 200.585938 87.515625 L 140.875 87.515625 Z M 140.875 69.777344 " clip-rule="nonzero"/></clipPath></defs><path fill="#ffffff" d="M 67.933594 34.707031 L 55.953125 34.707031 C 55.929688 34.441406 55.898438 34.179688 55.863281 33.921875 C 55.8125 33.523438 55.75 33.132812 55.675781 32.742188 C 55.570312 32.195312 55.445312 31.652344 55.296875 31.117188 C 55.191406 30.734375 55.074219 30.351562 54.949219 29.976562 C 54.769531 29.449219 54.570312 28.925781 54.347656 28.417969 C 54.191406 28.050781 54.023438 27.691406 53.84375 27.335938 C 53.59375 26.835938 53.324219 26.347656 53.035156 25.871094 C 52.828125 25.53125 52.613281 25.195312 52.386719 24.867188 C 52.070312 24.410156 51.738281 23.960938 51.386719 23.53125 C 51.136719 23.21875 50.875 22.917969 50.609375 22.625 C 50.234375 22.210938 49.839844 21.816406 49.433594 21.433594 C 49.144531 21.164062 48.847656 20.898438 48.539062 20.644531 C 48.113281 20.289062 47.671875 19.949219 47.214844 19.625 C 46.890625 19.394531 46.5625 19.175781 46.222656 18.964844 C 45.753906 18.667969 45.269531 18.394531 44.773438 18.136719 C 44.421875 17.953125 44.0625 17.78125 43.699219 17.617188 C 43.191406 17.390625 42.675781 17.183594 42.148438 16.996094 C 41.773438 16.863281 41.398438 16.742188 41.011719 16.628906 C 40.480469 16.472656 39.941406 16.339844 39.390625 16.226562 C 39.003906 16.148438 38.609375 16.078125 38.214844 16.023438 C 37.667969 15.941406 37.113281 15.882812 36.550781 15.847656 C 36.214844 15.828125 35.875 15.8125 35.535156 15.808594 C 35.484375 15.808594 35.429688 15.804688 35.378906 15.804688 L 35.359375 15.804688 C 35.308594 15.804688 35.253906 15.804688 35.203125 15.804688 C 34.695312 15.804688 34.1875 15.824219 33.6875 15.859375 C 33.289062 15.890625 32.890625 15.929688 32.5 15.980469 C 31.941406 16.050781 31.394531 16.148438 30.851562 16.261719 C 30.496094 16.335938 30.148438 16.421875 29.804688 16.515625 C 29.765625 16.523438 29.726562 16.535156 29.6875 16.546875 C 29.425781 16.617188 29.160156 16.695312 28.902344 16.78125 C 28.628906 16.867188 28.363281 16.957031 28.097656 17.054688 C 27.71875 17.191406 27.347656 17.335938 26.984375 17.496094 C 26.46875 17.714844 25.964844 17.957031 25.472656 18.21875 C 25.121094 18.40625 24.773438 18.601562 24.433594 18.808594 C 24.214844 18.941406 24 19.078125 23.785156 19.21875 C 23.53125 19.386719 23.285156 19.558594 23.039062 19.734375 C 23.027344 19.742188 23.015625 19.75 23.003906 19.761719 C 22.691406 19.984375 22.386719 20.21875 22.089844 20.460938 C 21.65625 20.8125 21.234375 21.179688 20.832031 21.566406 C 20.542969 21.84375 20.261719 22.125 19.988281 22.417969 C 19.609375 22.824219 19.242188 23.246094 18.894531 23.683594 L 18.867188 23.71875 C 18.667969 23.96875 18.476562 24.222656 18.289062 24.484375 C 18.25 24.535156 18.214844 24.585938 18.179688 24.636719 C 17.855469 25.09375 17.550781 25.558594 17.265625 26.042969 C 17.0625 26.382812 16.871094 26.730469 16.6875 27.085938 C 16.429688 27.578125 16.195312 28.085938 15.976562 28.601562 C 15.84375 28.917969 15.71875 29.238281 15.601562 29.5625 C 15.582031 29.613281 15.566406 29.664062 15.546875 29.714844 C 15.460938 29.964844 15.375 30.21875 15.296875 30.472656 C 15.210938 30.75 15.128906 31.03125 15.054688 31.3125 C 14.953125 31.699219 14.863281 32.085938 14.78125 32.476562 C 14.671875 33.019531 14.582031 33.570312 14.515625 34.128906 C 14.464844 34.523438 14.429688 34.921875 14.40625 35.320312 C 14.386719 35.601562 14.375 35.882812 14.371094 36.164062 C 14.367188 36.324219 14.363281 36.484375 14.363281 36.644531 C 14.363281 36.761719 14.363281 36.878906 14.367188 36.996094 C 14.367188 37.042969 14.367188 37.089844 14.371094 37.136719 C 14.378906 37.488281 14.394531 37.839844 14.421875 38.191406 C 14.460938 38.75 14.527344 39.304688 14.613281 39.855469 C 14.671875 40.25 14.746094 40.640625 14.828125 41.03125 C 14.945312 41.578125 15.085938 42.117188 15.246094 42.652344 C 15.265625 42.710938 15.28125 42.769531 15.300781 42.828125 C 15.398438 43.132812 15.5 43.4375 15.609375 43.734375 C 15.613281 43.753906 15.621094 43.769531 15.625 43.785156 C 15.820312 44.3125 16.03125 44.828125 16.265625 45.335938 C 16.433594 45.699219 16.609375 46.054688 16.796875 46.40625 C 17.0625 46.902344 17.34375 47.382812 17.644531 47.851562 C 17.851562 48.179688 18.070312 48.5 18.296875 48.8125 C 18.304688 48.820312 18.308594 48.832031 18.316406 48.839844 C 18.496094 49.089844 18.683594 49.335938 18.875 49.578125 C 19.03125 49.773438 19.191406 49.96875 19.351562 50.15625 C 19.609375 50.460938 19.878906 50.757812 20.15625 51.046875 C 20.539062 51.449219 20.941406 51.835938 21.359375 52.207031 C 21.65625 52.472656 21.960938 52.730469 22.273438 52.976562 C 22.515625 53.167969 22.761719 53.355469 23.011719 53.535156 C 23.210938 53.679688 23.417969 53.824219 23.625 53.960938 C 23.683594 54 23.738281 54.039062 23.796875 54.078125 C 24.070312 54.257812 24.351562 54.429688 24.636719 54.597656 C 25.113281 54.882812 25.605469 55.148438 26.109375 55.390625 C 26.464844 55.566406 26.828125 55.730469 27.195312 55.882812 C 27.707031 56.097656 28.230469 56.289062 28.761719 56.464844 C 28.8125 56.480469 28.863281 56.496094 28.914062 56.511719 C 29.210938 56.609375 29.515625 56.695312 29.820312 56.777344 C 29.847656 56.785156 29.878906 56.792969 29.910156 56.800781 C 30.445312 56.941406 30.988281 57.0625 31.542969 57.160156 C 31.933594 57.230469 32.328125 57.285156 32.722656 57.335938 C 32.878906 57.351562 33.03125 57.371094 33.1875 57.382812 L 33.222656 59.183594 L 33.339844 64.875 L 33.378906 66.675781 L 33.398438 67.585938 L 33.414062 68.476562 L 33.433594 69.382812 C 33.078125 69.363281 32.71875 69.339844 32.363281 69.308594 C 31.964844 69.273438 31.570312 69.234375 31.175781 69.183594 C 30.621094 69.117188 30.070312 69.035156 29.519531 68.9375 C 29.210938 68.886719 28.90625 68.828125 28.601562 68.765625 C 28.515625 68.746094 28.429688 68.730469 28.347656 68.710938 C 27.800781 68.59375 27.257812 68.464844 26.71875 68.320312 C 26.335938 68.21875 25.953125 68.109375 25.570312 67.992188 C 25.039062 67.828125 24.507812 67.652344 23.984375 67.460938 C 23.609375 67.324219 23.238281 67.179688 22.867188 67.03125 C 22.726562 66.972656 22.582031 66.910156 22.4375 66.851562 C 22.066406 66.695312 21.699219 66.53125 21.335938 66.359375 C 20.976562 66.191406 20.617188 66.015625 20.261719 65.835938 C 19.765625 65.578125 19.277344 65.3125 18.792969 65.03125 C 18.449219 64.832031 18.105469 64.628906 17.769531 64.414062 C 17.464844 64.222656 17.164062 64.027344 16.867188 63.828125 C 16.703125 63.714844 16.539062 63.601562 16.375 63.488281 C 16.050781 63.257812 15.730469 63.023438 15.410156 62.785156 C 14.964844 62.445312 14.53125 62.097656 14.101562 61.738281 C 13.796875 61.480469 13.496094 61.21875 13.203125 60.953125 C 12.796875 60.585938 12.402344 60.210938 12.019531 59.828125 L 11.988281 59.796875 C 11.707031 59.515625 11.433594 59.230469 11.160156 58.9375 C 10.78125 58.53125 10.414062 58.113281 10.054688 57.683594 C 9.800781 57.378906 9.546875 57.066406 9.304688 56.753906 C 8.960938 56.3125 8.628906 55.863281 8.308594 55.40625 C 8.210938 55.265625 8.113281 55.121094 8.019531 54.980469 C 7.890625 54.792969 7.765625 54.605469 7.644531 54.414062 C 7.339844 53.945312 7.050781 53.46875 6.773438 52.984375 C 6.574219 52.640625 6.378906 52.289062 6.195312 51.9375 C 5.933594 51.445312 5.683594 50.945312 5.449219 50.4375 C 5.292969 50.097656 5.140625 49.753906 4.992188 49.410156 C 4.984375 49.386719 4.976562 49.367188 4.964844 49.34375 C 4.75 48.832031 4.546875 48.308594 4.359375 47.785156 C 4.222656 47.410156 4.09375 47.03125 3.972656 46.652344 C 3.800781 46.121094 3.644531 45.585938 3.503906 45.046875 C 3.402344 44.660156 3.304688 44.273438 3.21875 43.882812 C 3.171875 43.671875 3.125 43.457031 3.082031 43.246094 C 3.011719 42.914062 2.949219 42.578125 2.890625 42.242188 C 2.824219 41.847656 2.761719 41.457031 2.710938 41.058594 C 2.636719 40.507812 2.574219 39.953125 2.527344 39.394531 C 2.496094 39 2.46875 38.601562 2.449219 38.203125 C 2.425781 37.683594 2.414062 37.164062 2.414062 36.644531 C 2.414062 36.605469 2.414062 36.566406 2.414062 36.527344 C 2.414062 36.128906 2.421875 35.730469 2.4375 35.332031 C 2.460938 34.777344 2.496094 34.21875 2.546875 33.664062 C 2.582031 33.265625 2.625 32.871094 2.675781 32.472656 C 2.746094 31.917969 2.832031 31.367188 2.929688 30.820312 C 2.976562 30.558594 3.027344 30.300781 3.078125 30.042969 C 3.105469 29.910156 3.132812 29.777344 3.164062 29.644531 C 3.28125 29.101562 3.414062 28.558594 3.5625 28.019531 C 3.664062 27.636719 3.777344 27.253906 3.894531 26.875 C 4.0625 26.339844 4.242188 25.8125 4.433594 25.289062 C 4.574219 24.914062 4.71875 24.542969 4.871094 24.175781 C 4.910156 24.078125 4.949219 23.980469 4.992188 23.882812 C 5.167969 23.464844 5.351562 23.050781 5.546875 22.644531 C 5.714844 22.285156 5.894531 21.925781 6.078125 21.570312 C 6.332031 21.078125 6.601562 20.589844 6.886719 20.105469 C 7.085938 19.761719 7.292969 19.417969 7.507812 19.082031 C 7.675781 18.820312 7.84375 18.5625 8.015625 18.304688 C 8.15625 18.101562 8.296875 17.894531 8.441406 17.691406 C 8.671875 17.367188 8.910156 17.046875 9.152344 16.730469 C 9.488281 16.289062 9.839844 15.855469 10.203125 15.429688 C 10.460938 15.125 10.722656 14.824219 10.992188 14.53125 C 11.328125 14.164062 11.667969 13.808594 12.019531 13.457031 L 12.152344 13.324219 C 12.4375 13.042969 12.726562 12.769531 13.019531 12.5 C 13.429688 12.121094 13.847656 11.753906 14.28125 11.398438 C 14.585938 11.144531 14.898438 10.894531 15.214844 10.652344 C 15.65625 10.3125 16.105469 9.980469 16.566406 9.664062 C 16.664062 9.59375 16.765625 9.527344 16.867188 9.457031 C 17.09375 9.304688 17.328125 9.152344 17.558594 9.003906 C 18.03125 8.703125 18.507812 8.414062 18.992188 8.136719 C 19.339844 7.941406 19.6875 7.75 20.042969 7.5625 C 20.535156 7.304688 21.035156 7.058594 21.542969 6.828125 C 21.839844 6.691406 22.136719 6.558594 22.4375 6.433594 C 22.503906 6.40625 22.574219 6.375 22.640625 6.347656 C 23.15625 6.136719 23.675781 5.933594 24.203125 5.746094 C 24.578125 5.613281 24.953125 5.488281 25.335938 5.367188 C 25.867188 5.199219 26.402344 5.046875 26.941406 4.90625 C 27.328125 4.804688 27.714844 4.710938 28.105469 4.625 C 28.269531 4.589844 28.4375 4.554688 28.601562 4.519531 C 28.980469 4.441406 29.363281 4.371094 29.746094 4.308594 C 30.140625 4.242188 30.535156 4.183594 30.929688 4.132812 C 31.480469 4.058594 32.035156 4.003906 32.59375 3.957031 C 32.988281 3.925781 33.386719 3.902344 33.785156 3.886719 C 34.257812 3.867188 34.730469 3.855469 35.203125 3.855469 C 35.289062 3.855469 35.375 3.855469 35.457031 3.855469 L 35.535156 3.855469 C 35.878906 3.859375 36.226562 3.867188 36.574219 3.882812 C 36.601562 3.882812 36.625 3.882812 36.652344 3.886719 C 37.210938 3.910156 37.765625 3.949219 38.320312 4 C 38.71875 4.039062 39.113281 4.082031 39.507812 4.136719 C 40.0625 4.207031 40.613281 4.292969 41.160156 4.394531 C 41.375 4.433594 41.589844 4.476562 41.804688 4.519531 C 41.980469 4.554688 42.15625 4.59375 42.332031 4.632812 C 42.875 4.753906 43.417969 4.886719 43.957031 5.035156 C 44.339844 5.144531 44.722656 5.257812 45.101562 5.375 L 45.214844 5.410156 C 45.679688 5.5625 46.140625 5.722656 46.601562 5.890625 C 46.625 5.902344 46.652344 5.910156 46.679688 5.921875 C 47.054688 6.0625 47.425781 6.207031 47.792969 6.359375 L 47.96875 6.433594 C 48.421875 6.625 48.871094 6.828125 49.320312 7.042969 C 49.679688 7.214844 50.035156 7.390625 50.386719 7.578125 C 50.882812 7.835938 51.367188 8.105469 51.847656 8.390625 C 52.191406 8.589844 52.53125 8.800781 52.867188 9.015625 C 53.09375 9.160156 53.316406 9.304688 53.539062 9.457031 C 53.777344 9.617188 54.015625 9.785156 54.25 9.953125 C 54.269531 9.964844 54.285156 9.976562 54.304688 9.992188 C 54.609375 10.210938 54.910156 10.433594 55.210938 10.664062 C 55.296875 10.730469 55.382812 10.796875 55.464844 10.863281 C 55.820312 11.140625 56.167969 11.425781 56.507812 11.71875 C 56.808594 11.976562 57.109375 12.242188 57.402344 12.511719 C 57.738281 12.820312 58.066406 13.136719 58.386719 13.457031 C 58.460938 13.527344 58.53125 13.601562 58.601562 13.675781 C 58.882812 13.957031 59.15625 14.246094 59.421875 14.542969 C 59.800781 14.953125 60.164062 15.375 60.519531 15.804688 C 60.773438 16.113281 61.019531 16.421875 61.261719 16.738281 C 61.347656 16.851562 61.433594 16.964844 61.515625 17.078125 C 61.765625 17.410156 62.007812 17.75 62.242188 18.09375 C 62.28125 18.148438 62.316406 18.199219 62.351562 18.253906 C 62.363281 18.273438 62.378906 18.289062 62.386719 18.304688 C 62.5625 18.566406 62.734375 18.824219 62.902344 19.089844 C 63.199219 19.558594 63.488281 20.039062 63.761719 20.523438 C 63.957031 20.871094 64.148438 21.21875 64.332031 21.574219 C 64.585938 22.070312 64.832031 22.570312 65.0625 23.078125 C 65.183594 23.34375 65.300781 23.609375 65.414062 23.878906 C 65.453125 23.976562 65.496094 24.074219 65.535156 24.171875 C 65.746094 24.6875 65.945312 25.207031 66.132812 25.734375 C 66.164062 25.820312 66.191406 25.90625 66.222656 25.992188 C 66.320312 26.28125 66.417969 26.574219 66.507812 26.867188 C 66.5625 27.035156 66.609375 27.203125 66.660156 27.371094 C 66.769531 27.734375 66.871094 28.105469 66.964844 28.476562 C 67.0625 28.863281 67.15625 29.25 67.242188 29.636719 C 67.269531 29.773438 67.296875 29.90625 67.328125 30.042969 C 67.410156 30.453125 67.488281 30.863281 67.554688 31.28125 C 67.621094 31.671875 67.675781 32.066406 67.726562 32.460938 C 67.796875 33.011719 67.855469 33.566406 67.894531 34.125 C 67.910156 34.316406 67.921875 34.511719 67.933594 34.707031 Z M 67.933594 34.707031 " fill-opacity="1" fill-rule="nonzero"/><path fill="#000000" d="M 26.441406 68.054688 C 25.96875 67.914062 25.496094 67.761719 25.035156 67.601562 L 28.980469 56.320312 C 29.273438 56.421875 29.574219 56.519531 29.871094 56.609375 Z M 17.1875 63.597656 C 16.789062 63.316406 16.386719 63.027344 16 62.730469 L 23.246094 53.226562 C 23.492188 53.417969 23.746094 53.601562 24.003906 53.777344 Z M 9.78125 56.511719 C 9.484375 56.125 9.191406 55.722656 8.914062 55.324219 L 18.730469 48.507812 C 18.90625 48.765625 19.09375 49.019531 19.28125 49.265625 Z M 4.910156 47.480469 C 4.75 47.019531 4.597656 46.550781 4.457031 46.082031 L 15.902344 42.648438 C 15.992188 42.945312 16.089844 43.242188 16.191406 43.53125 Z M 3.085938 37.390625 C 3.078125 37.144531 3.078125 36.890625 3.078125 36.644531 C 3.078125 36.40625 3.078125 36.164062 3.085938 35.921875 L 15.03125 36.183594 C 15.027344 36.335938 15.027344 36.492188 15.027344 36.644531 C 15.027344 36.804688 15.027344 36.964844 15.03125 37.121094 Z M 15.898438 30.65625 L 4.449219 27.230469 C 4.589844 26.761719 4.742188 26.289062 4.902344 25.828125 L 16.183594 29.769531 C 16.082031 30.058594 15.988281 30.359375 15.898438 30.65625 Z M 55.824219 30.628906 C 55.734375 30.332031 55.636719 30.035156 55.535156 29.742188 L 66.8125 25.785156 C 66.972656 26.246094 67.128906 26.71875 67.269531 27.1875 Z M 18.726562 24.789062 L 8.90625 17.976562 C 9.183594 17.578125 9.472656 17.175781 9.769531 16.789062 L 19.277344 24.03125 C 19.085938 24.277344 18.902344 24.53125 18.726562 24.789062 Z M 52.992188 24.765625 C 52.8125 24.511719 52.628906 24.257812 52.4375 24.011719 L 61.9375 16.757812 C 62.230469 17.144531 62.523438 17.542969 62.800781 17.945312 Z M 23.234375 20.066406 L 15.984375 10.566406 C 16.371094 10.269531 16.773438 9.980469 17.171875 9.703125 L 23.992188 19.515625 C 23.738281 19.691406 23.484375 19.878906 23.234375 20.066406 Z M 48.476562 20.050781 C 48.226562 19.863281 47.972656 19.675781 47.71875 19.5 L 54.523438 9.675781 C 54.925781 9.957031 55.324219 10.246094 55.714844 10.542969 Z M 28.96875 16.972656 L 25.011719 5.695312 C 25.472656 5.53125 25.945312 5.378906 26.414062 5.238281 L 29.855469 16.683594 C 29.558594 16.773438 29.257812 16.871094 28.96875 16.972656 Z M 42.734375 16.960938 C 42.441406 16.859375 42.144531 16.761719 41.847656 16.675781 L 45.269531 5.226562 C 45.738281 5.367188 46.210938 5.519531 46.675781 5.679688 Z M 35.378906 15.808594 L 35.105469 3.863281 C 35.359375 3.855469 35.613281 3.855469 35.867188 3.855469 C 36.101562 3.855469 36.339844 3.855469 36.574219 3.863281 L 36.320312 15.808594 C 36.007812 15.804688 35.691406 15.804688 35.378906 15.808594 Z M 35.378906 15.808594 " fill-opacity="1" fill-rule="nonzero"/><g clip-path="url(#bb76c7054f)"><path fill="#000000" d="M 35.203125 66.445312 Z M 69.109375 29.683594 C 68.894531 28.632812 68.628906 27.59375 68.316406 26.566406 C 68.007812 25.539062 67.648438 24.527344 67.242188 23.535156 C 66.835938 22.542969 66.386719 21.570312 65.890625 20.617188 C 65.394531 19.667969 64.855469 18.742188 64.273438 17.839844 C 63.691406 16.9375 63.070312 16.066406 62.40625 15.222656 C 61.742188 14.378906 61.042969 13.566406 60.304688 12.789062 C 59.566406 12.011719 58.792969 11.269531 57.984375 10.5625 C 57.175781 9.855469 56.339844 9.1875 55.46875 8.5625 C 54.597656 7.933594 53.703125 7.347656 52.777344 6.800781 C 51.851562 6.257812 50.90625 5.753906 49.933594 5.296875 C 48.964844 4.84375 47.972656 4.429688 46.964844 4.066406 C 45.957031 3.703125 44.933594 3.382812 43.894531 3.113281 C 42.855469 2.84375 41.808594 2.625 40.746094 2.453125 C 39.6875 2.28125 38.625 2.15625 37.554688 2.085938 C 36.484375 2.011719 35.410156 1.988281 34.339844 2.015625 C 33.265625 2.042969 32.199219 2.117188 31.132812 2.246094 C 30.066406 2.371094 29.007812 2.546875 27.960938 2.769531 C 26.910156 2.996094 25.875 3.265625 24.851562 3.589844 C 23.828125 3.910156 22.820312 4.277344 21.832031 4.691406 C 20.839844 5.105469 19.871094 5.566406 18.925781 6.070312 C 17.980469 6.574219 17.058594 7.121094 16.160156 7.710938 C 15.265625 8.300781 14.398438 8.933594 13.5625 9.601562 C 12.722656 10.273438 11.917969 10.980469 11.148438 11.726562 C 10.375 12.472656 9.640625 13.253906 8.941406 14.066406 C 8.242188 14.882812 7.582031 15.726562 6.964844 16.601562 C 6.34375 17.476562 5.765625 18.378906 5.226562 19.308594 C 4.691406 20.238281 4.199219 21.1875 3.75 22.164062 C 3.304688 23.136719 2.902344 24.132812 2.546875 25.144531 C 2.191406 26.15625 1.882812 27.183594 1.621094 28.222656 C 1.363281 29.265625 1.152344 30.316406 0.988281 31.375 C 0.824219 32.4375 0.714844 33.503906 0.648438 34.574219 C 0.585938 35.644531 0.574219 36.714844 0.609375 37.789062 C 0.644531 38.859375 0.730469 39.929688 0.867188 40.992188 C 1.003906 42.058594 1.1875 43.113281 1.421875 44.160156 C 1.65625 45.207031 1.9375 46.242188 2.269531 47.261719 C 2.597656 48.285156 2.976562 49.285156 3.398438 50.273438 C 3.820312 51.257812 4.289062 52.222656 4.804688 53.164062 C 5.316406 54.105469 5.871094 55.023438 6.46875 55.914062 C 7.070312 56.804688 7.707031 57.664062 8.386719 58.496094 C 9.0625 59.328125 9.777344 60.125 10.53125 60.890625 C 11.285156 61.65625 12.070312 62.382812 12.890625 63.074219 C 13.710938 63.765625 14.5625 64.417969 15.441406 65.03125 C 16.324219 65.644531 17.230469 66.214844 18.164062 66.742188 C 19.097656 67.269531 20.054688 67.753906 21.035156 68.191406 C 22.011719 68.632812 23.011719 69.023438 24.027344 69.371094 C 25.042969 69.71875 26.070312 70.015625 27.113281 70.265625 C 28.15625 70.515625 29.210938 70.71875 30.273438 70.871094 C 31.332031 71.023438 32.402344 71.128906 33.472656 71.179688 L 33.433594 69.386719 L 33.417969 68.480469 L 33.398438 67.585938 C 31.914062 67.5 30.441406 67.308594 28.984375 67.011719 C 28.289062 66.867188 27.59375 66.699219 26.902344 66.507812 C 26.453125 66.382812 26.003906 66.246094 25.558594 66.101562 C 24.746094 65.835938 23.949219 65.535156 23.160156 65.203125 C 21.355469 64.4375 19.636719 63.511719 18.007812 62.417969 C 17.96875 62.394531 17.933594 62.371094 17.894531 62.34375 C 17.542969 62.105469 17.195312 61.863281 16.855469 61.609375 C 14.570312 59.925781 12.554688 57.964844 10.804688 55.730469 C 10.515625 55.359375 10.234375 54.980469 9.960938 54.597656 C 9.8125 54.394531 9.667969 54.1875 9.527344 53.976562 C 8.40625 52.3125 7.453125 50.558594 6.667969 48.710938 C 6.441406 48.175781 6.234375 47.636719 6.035156 47.085938 C 5.878906 46.644531 5.730469 46.195312 5.589844 45.742188 C 5.300781 44.800781 5.058594 43.847656 4.859375 42.886719 C 4.488281 41.0625 4.28125 39.222656 4.238281 37.363281 C 4.234375 37.125 4.230469 36.882812 4.230469 36.644531 C 4.230469 36.410156 4.234375 36.179688 4.238281 35.949219 C 4.28125 34.078125 4.488281 32.230469 4.859375 30.402344 C 5.054688 29.445312 5.296875 28.5 5.582031 27.566406 C 5.722656 27.113281 5.871094 26.664062 6.027344 26.21875 C 6.226562 25.664062 6.441406 25.117188 6.667969 24.578125 C 7.453125 22.730469 8.40625 20.972656 9.527344 19.308594 C 9.667969 19.105469 9.808594 18.902344 9.949219 18.703125 C 10.222656 18.320312 10.503906 17.941406 10.796875 17.570312 C 12.542969 15.332031 14.558594 13.371094 16.84375 11.6875 C 17.1875 11.433594 17.539062 11.183594 17.898438 10.945312 L 17.992188 10.878906 C 19.625 9.785156 21.351562 8.851562 23.160156 8.085938 C 23.941406 7.753906 24.734375 7.457031 25.539062 7.195312 C 25.980469 7.046875 26.429688 6.910156 26.878906 6.785156 C 27.574219 6.589844 28.277344 6.421875 28.984375 6.277344 C 31.019531 5.863281 33.074219 5.652344 35.148438 5.648438 L 35.226562 5.648438 C 35.664062 5.648438 36.101562 5.65625 36.535156 5.675781 C 39.324219 5.789062 42.042969 6.269531 44.703125 7.125 C 45.140625 7.265625 45.578125 7.414062 46.011719 7.578125 C 46.445312 7.738281 46.875 7.90625 47.292969 8.085938 C 49.144531 8.867188 50.898438 9.820312 52.5625 10.945312 C 52.808594 11.109375 53.050781 11.28125 53.292969 11.453125 C 53.664062 11.71875 54.03125 11.996094 54.390625 12.277344 C 56.554688 13.984375 58.460938 15.941406 60.109375 18.152344 C 60.378906 18.519531 60.644531 18.890625 60.898438 19.265625 C 60.910156 19.28125 60.917969 19.296875 60.929688 19.308594 C 62.050781 20.972656 63.003906 22.730469 63.789062 24.578125 C 64.066406 25.234375 64.320312 25.902344 64.550781 26.578125 C 64.699219 27.007812 64.839844 27.441406 64.964844 27.878906 C 65.210938 28.710938 65.421875 29.550781 65.59375 30.402344 C 65.886719 31.824219 66.074219 33.257812 66.164062 34.707031 L 69.757812 34.707031 C 69.664062 33.015625 69.445312 31.339844 69.109375 29.683594 Z M 56.652344 29.347656 C 56.011719 27.464844 55.132812 25.699219 54.023438 24.046875 C 53.835938 23.773438 53.648438 23.503906 53.449219 23.238281 C 52.261719 21.625 50.882812 20.195312 49.316406 18.945312 C 49.054688 18.738281 48.789062 18.535156 48.519531 18.335938 C 46.890625 17.152344 45.136719 16.199219 43.253906 15.480469 C 42.941406 15.363281 42.625 15.25 42.304688 15.144531 C 40.371094 14.507812 38.390625 14.140625 36.355469 14.039062 C 36.019531 14.023438 35.679688 14.015625 35.339844 14.011719 C 35.300781 14.011719 35.265625 14.011719 35.226562 14.011719 C 33.214844 14.011719 31.234375 14.273438 29.289062 14.804688 C 28.960938 14.894531 28.632812 14.992188 28.308594 15.09375 C 26.339844 15.730469 24.496094 16.617188 22.769531 17.757812 C 22.484375 17.949219 22.199219 18.144531 21.921875 18.347656 C 20.238281 19.574219 18.75 21.007812 17.457031 22.644531 C 17.242188 22.917969 17.035156 23.195312 16.832031 23.476562 C 15.609375 25.175781 14.644531 27.011719 13.933594 28.980469 C 13.816406 29.304688 13.703125 29.636719 13.601562 29.96875 C 12.980469 31.976562 12.648438 34.027344 12.601562 36.128906 C 12.597656 36.300781 12.597656 36.472656 12.597656 36.644531 C 12.597656 36.820312 12.597656 37 12.601562 37.175781 C 12.652344 39.277344 12.984375 41.328125 13.605469 43.335938 C 13.710938 43.667969 13.820312 43.996094 13.9375 44.320312 C 14.648438 46.289062 15.617188 48.125 16.839844 49.824219 C 17.042969 50.105469 17.25 50.378906 17.464844 50.652344 C 18.757812 52.289062 20.25 53.71875 21.933594 54.949219 C 22.210938 55.152344 22.496094 55.347656 22.78125 55.539062 C 24.507812 56.679688 26.355469 57.566406 28.324219 58.199219 C 28.648438 58.300781 28.976562 58.398438 29.308594 58.488281 C 30.59375 58.839844 31.898438 59.070312 33.222656 59.1875 L 33.1875 57.386719 L 33.167969 56.496094 L 33.148438 55.578125 C 23.621094 54.539062 16.183594 46.445312 16.183594 36.644531 C 16.183594 26.140625 24.726562 17.597656 35.226562 17.597656 C 45.078125 17.597656 53.203125 25.109375 54.175781 34.707031 L 57.777344 34.707031 C 57.648438 33.207031 57.375 31.734375 56.953125 30.289062 C 56.859375 29.972656 56.761719 29.660156 56.652344 29.347656 Z M 56.652344 29.347656 " fill-opacity="1" fill-rule="nonzero"/></g><path fill="#ffffff" d="M 31.261719 68.472656 L 31.175781 69.1875 L 31.085938 69.894531 C 31.488281 69.945312 31.898438 69.988281 32.300781 70.023438 L 32.425781 68.59375 C 32.039062 68.5625 31.648438 68.519531 31.261719 68.472656 Z M 28.769531 68.0625 C 28.679688 68.046875 28.589844 68.027344 28.496094 68.007812 L 28.347656 68.714844 L 28.199219 69.410156 C 28.292969 69.429688 28.386719 69.449219 28.484375 69.46875 C 28.785156 69.53125 29.09375 69.589844 29.398438 69.644531 L 29.519531 68.941406 L 29.644531 68.230469 C 29.351562 68.179688 29.058594 68.125 28.769531 68.0625 Z M 26.59375 67.539062 C 26.324219 67.460938 26.054688 67.382812 25.785156 67.300781 L 25.628906 67.800781 L 25.570312 67.992188 L 25.363281 68.671875 C 25.75 68.792969 26.144531 68.90625 26.535156 69.011719 L 26.71875 68.324219 L 26.90625 67.625 C 26.804688 67.597656 26.699219 67.566406 26.59375 67.539062 Z M 23.144531 66.359375 L 22.867188 67.03125 L 22.601562 67.6875 C 22.976562 67.839844 23.359375 67.988281 23.742188 68.125 L 23.984375 67.460938 L 24.234375 66.78125 C 23.871094 66.648438 23.5 66.503906 23.144531 66.359375 Z M 20.59375 65.1875 L 20.261719 65.835938 L 19.941406 66.464844 C 20.300781 66.648438 20.667969 66.832031 21.035156 67.003906 L 21.335938 66.363281 L 21.644531 65.703125 C 21.292969 65.539062 20.941406 65.367188 20.59375 65.1875 Z M 35.203125 66.445312 Z M 18.15625 63.800781 L 17.769531 64.417969 L 17.394531 65.015625 C 17.734375 65.230469 18.085938 65.441406 18.4375 65.644531 L 18.792969 65.035156 L 19.15625 64.40625 C 18.824219 64.210938 18.488281 64.007812 18.15625 63.800781 Z M 16.203125 62.464844 C 16.082031 62.378906 15.96875 62.292969 15.851562 62.203125 L 15.410156 62.785156 L 14.984375 63.347656 C 15.308594 63.589844 15.640625 63.832031 15.972656 64.066406 L 16.375 63.492188 L 16.597656 63.179688 L 16.796875 62.894531 C 16.597656 62.753906 16.398438 62.609375 16.203125 62.464844 Z M 13.695312 60.410156 L 13.203125 60.957031 L 12.730469 61.472656 C 13.03125 61.746094 13.339844 62.015625 13.652344 62.277344 L 14.101562 61.742188 L 14.574219 61.179688 C 14.277344 60.929688 13.980469 60.671875 13.695312 60.410156 Z M 11.699219 58.441406 L 11.160156 58.941406 L 10.648438 59.414062 C 10.921875 59.710938 11.207031 60.007812 11.492188 60.296875 L 11.988281 59.800781 L 12.511719 59.28125 C 12.238281 59.007812 11.964844 58.722656 11.699219 58.4375 Z M 9.949219 56.382812 L 9.882812 56.300781 L 9.71875 56.433594 L 9.300781 56.753906 L 8.753906 57.179688 C 9 57.5 9.257812 57.820312 9.519531 58.132812 L 10.054688 57.683594 L 10.621094 57.210938 C 10.390625 56.941406 10.167969 56.660156 9.949219 56.382812 Z M 31.667969 56.453125 L 31.542969 57.160156 L 31.417969 57.863281 C 31.820312 57.933594 32.230469 57.996094 32.636719 58.046875 L 32.722656 57.335938 L 32.808594 56.621094 C 32.429688 56.574219 32.046875 56.519531 31.667969 56.449219 Z M 28.988281 55.777344 L 28.761719 56.464844 L 28.542969 57.140625 C 28.585938 57.152344 28.632812 57.167969 28.679688 57.183594 C 28.988281 57.28125 29.300781 57.375 29.613281 57.460938 C 29.652344 57.46875 29.691406 57.480469 29.726562 57.488281 L 29.910156 56.800781 L 30.09375 56.101562 C 29.726562 56.003906 29.351562 55.894531 28.988281 55.773438 Z M 26.425781 54.738281 L 26.109375 55.390625 L 25.796875 56.027344 C 26.164062 56.207031 26.542969 56.378906 26.921875 56.535156 L 27.195312 55.882812 L 27.472656 55.214844 C 27.125 55.066406 26.773438 54.90625 26.429688 54.738281 Z M 8.636719 54.578125 C 8.511719 54.394531 8.382812 54.203125 8.261719 54.015625 L 7.640625 54.414062 L 7.058594 54.789062 C 7.1875 54.988281 7.316406 55.1875 7.449219 55.382812 C 7.542969 55.523438 7.640625 55.664062 7.738281 55.804688 L 8.308594 55.40625 L 8.914062 54.984375 C 8.820312 54.851562 8.726562 54.714844 8.636719 54.578125 Z M 24.03125 53.355469 L 23.828125 53.65625 L 23.234375 54.546875 C 23.285156 54.582031 23.339844 54.617188 23.394531 54.652344 C 23.683594 54.84375 23.980469 55.027344 24.277344 55.203125 L 24.636719 54.597656 L 25.007812 53.972656 C 24.679688 53.777344 24.351562 53.570312 24.03125 53.355469 Z M 21.847656 51.660156 L 21.359375 52.207031 L 20.894531 52.730469 C 21.199219 53.003906 21.519531 53.269531 21.839844 53.523438 L 22.273438 52.976562 L 22.730469 52.402344 C 22.429688 52.164062 22.132812 51.914062 21.847656 51.660156 Z M 6.847656 51.589844 L 6.191406 51.9375 L 5.578125 52.261719 C 5.769531 52.621094 5.964844 52.976562 6.167969 53.332031 L 6.769531 52.984375 L 7.410156 52.617188 C 7.21875 52.28125 7.027344 51.933594 6.847656 51.59375 Z M 19.914062 49.679688 L 19.351562 50.15625 L 18.820312 50.609375 C 19.085938 50.921875 19.367188 51.230469 19.648438 51.527344 L 20.15625 51.042969 L 20.6875 50.535156 C 20.421875 50.261719 20.160156 49.972656 19.914062 49.679688 Z M 5.679688 49.128906 L 5.648438 49.058594 L 4.964844 49.34375 L 4.328125 49.613281 L 4.359375 49.6875 C 4.503906 50.035156 4.660156 50.386719 4.820312 50.730469 L 5.449219 50.4375 L 6.121094 50.128906 C 5.96875 49.796875 5.820312 49.460938 5.679688 49.128906 Z M 18.265625 47.457031 L 17.644531 47.855469 L 17.058594 48.230469 C 17.269531 48.558594 17.492188 48.890625 17.722656 49.207031 L 17.753906 49.25 L 18.316406 48.839844 L 18.746094 48.53125 L 18.914062 48.410156 C 18.691406 48.101562 18.472656 47.777344 18.265625 47.457031 Z M 5.023438 47.445312 C 4.902344 47.109375 4.785156 46.765625 4.675781 46.425781 L 4.574219 46.460938 L 3.972656 46.652344 L 3.3125 46.863281 C 3.433594 47.25 3.566406 47.636719 3.703125 48.019531 L 4.355469 47.785156 L 5.054688 47.53125 Z M 16.9375 45.027344 L 16.265625 45.335938 L 15.632812 45.628906 C 15.804688 46 15.992188 46.375 16.183594 46.734375 L 16.796875 46.410156 L 17.449219 46.0625 C 17.269531 45.722656 17.097656 45.375 16.9375 45.027344 Z M 3.941406 43.722656 L 3.21875 43.882812 L 2.542969 44.035156 C 2.632812 44.429688 2.730469 44.832031 2.832031 45.222656 L 3.5 45.046875 L 4.21875 44.855469 C 4.121094 44.480469 4.027344 44.097656 3.941406 43.722656 Z M 15.957031 42.4375 L 15.246094 42.652344 L 14.582031 42.851562 C 14.601562 42.910156 14.617188 42.96875 14.636719 43.027344 C 14.734375 43.34375 14.839844 43.65625 14.953125 43.964844 C 14.960938 43.984375 14.96875 44.007812 14.976562 44.027344 L 15.625 43.785156 L 16.320312 43.53125 C 16.191406 43.175781 16.066406 42.804688 15.957031 42.4375 Z M 3.445312 40.960938 L 2.710938 41.058594 L 2.023438 41.152344 C 2.078125 41.554688 2.140625 41.960938 2.210938 42.359375 L 2.890625 42.242188 L 3.621094 42.117188 C 3.554688 41.734375 3.496094 41.347656 3.445312 40.960938 Z M 15.34375 39.742188 L 14.609375 39.855469 L 13.925781 39.960938 C 13.988281 40.367188 14.066406 40.773438 14.152344 41.175781 L 14.828125 41.03125 L 15.554688 40.875 C 15.472656 40.5 15.402344 40.117188 15.34375 39.738281 Z M 3.191406 38.167969 L 2.453125 38.203125 L 1.761719 38.234375 C 1.78125 38.640625 1.804688 39.050781 1.839844 39.453125 L 2.527344 39.398438 L 3.269531 39.335938 C 3.234375 38.949219 3.210938 38.554688 3.191406 38.167969 Z M 15.109375 36.984375 L 15.027344 36.984375 L 14.367188 36.996094 L 13.675781 37.007812 C 13.675781 37.054688 13.675781 37.101562 13.679688 37.152344 C 13.6875 37.515625 13.703125 37.878906 13.730469 38.242188 L 14.421875 38.191406 L 15.160156 38.136719 C 15.132812 37.753906 15.117188 37.367188 15.109375 36.984375 Z M 2.441406 35.332031 L 1.75 35.304688 C 1.734375 35.710938 1.726562 36.121094 1.722656 36.527344 L 2.414062 36.527344 L 3.078125 36.53125 L 3.15625 36.53125 C 3.15625 36.328125 3.160156 36.125 3.164062 35.921875 C 3.167969 35.734375 3.175781 35.546875 3.179688 35.363281 Z M 14.515625 34.132812 L 13.828125 34.046875 C 13.777344 34.453125 13.742188 34.871094 13.714844 35.277344 L 14.40625 35.320312 L 15.144531 35.371094 C 15.167969 34.988281 15.207031 34.601562 15.25 34.222656 Z M 68.636719 34.066406 L 67.894531 34.125 L 67.207031 34.175781 C 67.21875 34.351562 67.230469 34.527344 67.242188 34.707031 L 68.679688 34.707031 C 68.667969 34.492188 68.652344 34.28125 68.636719 34.066406 Z M 56.40625 32.605469 L 55.675781 32.742188 L 54.996094 32.871094 C 55.066406 33.25 55.128906 33.632812 55.179688 34.011719 L 55.863281 33.921875 L 56.601562 33.824219 C 56.546875 33.417969 56.480469 33.007812 56.40625 32.605469 Z M 2.675781 32.472656 L 1.988281 32.386719 C 1.9375 32.789062 1.894531 33.195312 1.859375 33.601562 L 2.546875 33.664062 L 3.289062 33.730469 C 3.324219 33.34375 3.367188 32.953125 3.414062 32.566406 Z M 15.054688 31.316406 L 14.382812 31.136719 C 14.28125 31.535156 14.183594 31.9375 14.101562 32.339844 L 14.78125 32.480469 L 15.507812 32.625 C 15.585938 32.25 15.671875 31.875 15.769531 31.503906 Z M 68.285156 31.160156 L 67.554688 31.277344 L 66.871094 31.390625 C 66.933594 31.773438 66.988281 32.164062 67.039062 32.546875 L 67.726562 32.460938 L 68.460938 32.367188 C 68.410156 31.964844 68.351562 31.558594 68.285156 31.160156 Z M 55.921875 30.601562 C 55.835938 30.3125 55.746094 30.023438 55.648438 29.738281 L 55.546875 29.773438 L 54.945312 29.976562 L 54.289062 30.199219 C 54.414062 30.5625 54.527344 30.933594 54.628906 31.300781 L 55.296875 31.117188 L 56.011719 30.917969 C 55.984375 30.8125 55.953125 30.707031 55.921875 30.601562 Z M 3.164062 29.644531 L 2.488281 29.5 C 2.457031 29.632812 2.429688 29.765625 2.402344 29.898438 C 2.347656 30.160156 2.296875 30.429688 2.25 30.695312 L 2.929688 30.820312 L 3.660156 30.949219 C 3.707031 30.695312 3.757812 30.4375 3.808594 30.183594 C 3.832031 30.058594 3.859375 29.929688 3.886719 29.804688 Z M 15.976562 28.601562 L 15.339844 28.335938 C 15.199219 28.664062 15.070312 29 14.949219 29.335938 C 14.929688 29.386719 14.910156 29.433594 14.894531 29.484375 L 15.546875 29.714844 L 16.132812 29.921875 L 16.246094 29.960938 C 16.375 29.601562 16.511719 29.242188 16.660156 28.886719 Z M 67.683594 28.292969 L 66.964844 28.476562 L 66.296875 28.648438 C 66.390625 29.023438 66.484375 29.40625 66.566406 29.785156 L 67.242188 29.636719 L 67.964844 29.480469 C 67.878906 29.085938 67.785156 28.683594 67.683594 28.292969 Z M 54.503906 27 L 53.84375 27.332031 L 53.222656 27.644531 C 53.394531 27.988281 53.558594 28.339844 53.710938 28.691406 L 54.347656 28.414062 L 55.027344 28.121094 C 54.867188 27.746094 54.6875 27.367188 54.503906 27 Z M 4.5 27.058594 L 3.898438 26.871094 L 3.234375 26.664062 C 3.117188 27.050781 3 27.445312 2.894531 27.835938 L 3.5625 28.019531 L 4.277344 28.214844 C 4.363281 27.894531 4.457031 27.574219 4.554688 27.257812 C 4.570312 27.203125 4.585938 27.144531 4.605469 27.089844 Z M 17.265625 26.042969 L 16.667969 25.6875 C 16.460938 26.039062 16.257812 26.40625 16.070312 26.765625 L 16.6875 27.085938 L 17.34375 27.425781 C 17.519531 27.085938 17.707031 26.75 17.902344 26.417969 Z M 66.832031 25.488281 L 66.132812 25.734375 L 65.476562 25.964844 C 65.507812 26.050781 65.539062 26.136719 65.566406 26.222656 C 65.664062 26.503906 65.757812 26.789062 65.847656 27.074219 L 66.507812 26.867188 L 67.113281 26.679688 L 67.214844 26.648438 C 67.09375 26.261719 66.964844 25.871094 66.832031 25.488281 Z M 53.140625 24.660156 C 53.09375 24.589844 53.042969 24.519531 52.996094 24.449219 L 52.839844 24.554688 L 52.386719 24.867188 L 51.8125 25.261719 C 52.03125 25.578125 52.242188 25.902344 52.441406 26.230469 L 53.035156 25.871094 L 53.667969 25.484375 C 53.5 25.210938 53.320312 24.933594 53.140625 24.660156 Z M 4.871094 24.171875 L 4.230469 23.910156 C 4.074219 24.285156 3.925781 24.667969 3.785156 25.046875 L 4.4375 25.289062 L 5.132812 25.542969 C 5.265625 25.179688 5.410156 24.8125 5.554688 24.453125 Z M 18.894531 23.683594 L 18.351562 23.25 C 18.335938 23.265625 18.324219 23.28125 18.3125 23.296875 C 18.109375 23.554688 17.90625 23.820312 17.714844 24.089844 C 17.679688 24.136719 17.644531 24.1875 17.609375 24.238281 L 18.179688 24.640625 L 18.78125 25.066406 C 19 24.753906 19.234375 24.441406 19.472656 24.140625 Z M 66.097656 23.601562 C 65.980469 23.324219 65.859375 23.042969 65.734375 22.769531 L 65.0625 23.078125 L 64.429688 23.363281 C 64.550781 23.628906 64.667969 23.894531 64.777344 24.15625 C 64.816406 24.25 64.855469 24.34375 64.894531 24.4375 L 65.535156 24.175781 L 66.222656 23.890625 C 66.179688 23.792969 66.140625 23.695312 66.097656 23.597656 Z M 51.152344 22.128906 L 50.609375 22.625 L 50.09375 23.09375 C 50.351562 23.378906 50.605469 23.671875 50.847656 23.96875 L 51.386719 23.53125 L 51.957031 23.066406 C 51.699219 22.746094 51.429688 22.429688 51.152344 22.128906 Z M 6.078125 21.570312 L 5.460938 21.25 C 5.273438 21.609375 5.09375 21.980469 4.917969 22.34375 L 5.546875 22.640625 L 6.214844 22.957031 C 6.382812 22.605469 6.554688 22.253906 6.734375 21.910156 Z M 20.832031 21.566406 L 20.347656 21.0625 C 20.050781 21.34375 19.757812 21.640625 19.480469 21.9375 L 19.988281 22.414062 L 20.527344 22.917969 C 20.789062 22.636719 21.0625 22.363281 21.339844 22.097656 Z M 49.011719 20.082031 L 48.539062 20.644531 L 48.09375 21.183594 C 48.386719 21.429688 48.675781 21.683594 48.957031 21.945312 L 49.433594 21.4375 L 49.9375 20.898438 C 49.636719 20.617188 49.324219 20.34375 49.011719 20.082031 Z M 64.40625 20.160156 L 63.761719 20.523438 L 63.15625 20.867188 C 63.347656 21.203125 63.535156 21.550781 63.714844 21.894531 L 64.328125 21.574219 L 64.988281 21.234375 C 64.800781 20.875 64.605469 20.511719 64.40625 20.160156 Z M 23.261719 20.046875 L 23.039062 19.734375 L 22.625 19.164062 L 22.574219 19.203125 C 22.261719 19.429688 21.949219 19.671875 21.644531 19.917969 L 22.085938 20.460938 L 22.550781 21.03125 C 22.847656 20.789062 23.15625 20.554688 23.464844 20.328125 Z M 7.507812 19.082031 L 6.921875 18.710938 C 6.703125 19.050781 6.492188 19.402344 6.285156 19.753906 L 6.886719 20.101562 L 7.523438 20.476562 C 7.71875 20.140625 7.925781 19.804688 8.132812 19.476562 Z M 46.609375 18.34375 L 46.222656 18.960938 L 45.851562 19.558594 C 46.175781 19.761719 46.5 19.976562 46.8125 20.199219 L 47.214844 19.625 L 47.636719 19.027344 C 47.304688 18.789062 46.957031 18.5625 46.609375 18.34375 Z M 63.007812 17.90625 C 62.957031 17.828125 62.902344 17.75 62.851562 17.675781 L 62.691406 17.785156 L 62.242188 18.09375 L 61.667969 18.488281 C 61.707031 18.542969 61.742188 18.597656 61.78125 18.652344 C 61.792969 18.671875 61.804688 18.6875 61.820312 18.707031 C 61.984375 18.953125 62.152344 19.210938 62.3125 19.460938 L 62.898438 19.089844 L 63.523438 18.695312 C 63.355469 18.429688 63.183594 18.164062 63.007812 17.90625 Z M 25.472656 18.21875 L 25.140625 17.597656 C 24.78125 17.789062 24.417969 17.996094 24.066406 18.207031 L 24.433594 18.808594 L 24.8125 19.433594 C 25.140625 19.234375 25.476562 19.042969 25.816406 18.863281 Z M 43.996094 16.953125 L 43.699219 17.617188 L 43.410156 18.261719 C 43.761719 18.417969 44.109375 18.585938 44.449219 18.761719 L 44.773438 18.136719 L 45.109375 17.488281 C 44.746094 17.300781 44.371094 17.121094 43.996094 16.953125 Z M 28.09375 17.054688 L 27.851562 16.386719 C 27.464844 16.527344 27.078125 16.683594 26.703125 16.84375 L 26.984375 17.496094 L 27.269531 18.160156 C 27.621094 18.011719 27.984375 17.867188 28.34375 17.734375 Z M 9.570312 17.050781 L 9.152344 16.730469 L 8.597656 16.308594 C 8.351562 16.628906 8.105469 16.960938 7.871094 17.289062 L 8.441406 17.695312 L 9.042969 18.121094 L 9.0625 18.089844 C 9.28125 17.785156 9.507812 17.476562 9.734375 17.179688 Z M 41.996094 16.175781 C 41.734375 16.089844 41.476562 16.007812 41.214844 15.933594 L 41.011719 16.628906 L 40.816406 17.3125 C 41.183594 17.417969 41.550781 17.535156 41.914062 17.664062 L 42.148438 16.992188 L 42.21875 16.789062 L 42.390625 16.308594 C 42.257812 16.265625 42.128906 16.21875 41.996094 16.175781 Z M 30.851562 16.261719 L 30.699219 15.566406 C 30.332031 15.644531 29.960938 15.734375 29.597656 15.832031 C 29.566406 15.84375 29.53125 15.851562 29.5 15.859375 L 29.6875 16.546875 L 29.738281 16.71875 L 29.878906 17.242188 C 30.25 17.140625 30.625 17.046875 31 16.96875 Z M 61.085938 15.335938 L 60.519531 15.804688 L 59.980469 16.25 C 60.226562 16.546875 60.472656 16.855469 60.707031 17.164062 L 61.261719 16.738281 L 61.847656 16.292969 C 61.601562 15.96875 61.34375 15.648438 61.085938 15.335938 Z M 38.316406 15.308594 L 38.214844 16.023438 L 38.113281 16.726562 C 38.492188 16.78125 38.875 16.847656 39.25 16.925781 L 39.390625 16.226562 L 39.535156 15.519531 C 39.132812 15.4375 38.722656 15.367188 38.316406 15.308594 Z M 33.6875 15.859375 L 33.632812 15.144531 C 33.226562 15.175781 32.8125 15.21875 32.40625 15.273438 L 32.5 15.980469 L 32.59375 16.695312 C 32.972656 16.644531 33.355469 16.605469 33.738281 16.578125 Z M 36.335938 15.117188 C 36.011719 15.097656 35.6875 15.089844 35.363281 15.089844 L 35.359375 15.804688 L 35.355469 16.523438 C 35.734375 16.523438 36.125 16.539062 36.507812 16.5625 L 36.550781 15.847656 L 36.597656 15.132812 C 36.507812 15.125 36.421875 15.121094 36.335938 15.117188 Z M 10.992188 14.53125 L 10.476562 14.058594 C 10.203125 14.359375 9.933594 14.667969 9.671875 14.976562 L 10.203125 15.429688 L 10.765625 15.902344 C 11.015625 15.609375 11.273438 15.3125 11.535156 15.027344 Z M 59.128906 13.160156 L 58.601562 13.675781 L 58.105469 14.164062 C 58.375 14.441406 58.644531 14.726562 58.90625 15.011719 L 59.421875 14.542969 L 59.964844 14.046875 C 59.691406 13.746094 59.410156 13.449219 59.128906 13.160156 Z M 13.019531 12.5 L 12.542969 11.984375 C 12.246094 12.257812 11.949219 12.542969 11.660156 12.828125 L 12.152344 13.324219 L 12.667969 13.847656 C 12.945312 13.574219 13.226562 13.300781 13.515625 13.039062 Z M 56.984375 11.160156 L 56.507812 11.71875 L 56.054688 12.25 C 56.351562 12.503906 56.644531 12.765625 56.929688 13.027344 L 57.402344 12.511719 L 57.898438 11.972656 C 57.601562 11.695312 57.292969 11.425781 56.984375 11.160156 Z M 15.210938 10.652344 L 14.785156 10.09375 C 14.464844 10.34375 14.140625 10.601562 13.832031 10.859375 L 14.277344 11.398438 L 14.746094 11.964844 C 15.046875 11.714844 15.351562 11.46875 15.660156 11.234375 Z M 54.675781 9.355469 L 54.25 9.953125 L 53.84375 10.523438 C 53.863281 10.539062 53.882812 10.554688 53.90625 10.566406 C 54.199219 10.777344 54.496094 11 54.78125 11.21875 L 55.210938 10.664062 L 55.453125 10.347656 L 55.65625 10.085938 C 55.335938 9.835938 55.007812 9.59375 54.675781 9.355469 Z M 17.558594 9.003906 L 17.179688 8.410156 C 16.949219 8.558594 16.71875 8.710938 16.492188 8.863281 C 16.382812 8.9375 16.273438 9.011719 16.164062 9.085938 L 16.5625 9.664062 L 16.78125 9.980469 L 16.980469 10.265625 C 17.082031 10.195312 17.1875 10.121094 17.292969 10.050781 L 17.375 9.996094 C 17.566406 9.867188 17.757812 9.742188 17.953125 9.617188 Z M 52.21875 7.761719 L 51.851562 8.390625 L 51.492188 8.996094 C 51.828125 9.191406 52.160156 9.398438 52.488281 9.609375 L 52.867188 9.015625 L 53.261719 8.398438 C 52.917969 8.183594 52.570312 7.964844 52.21875 7.761719 Z M 20.042969 7.566406 L 19.714844 6.941406 C 19.355469 7.128906 18.996094 7.324219 18.644531 7.527344 L 18.992188 8.136719 L 19.351562 8.773438 C 19.691406 8.582031 20.035156 8.390625 20.378906 8.210938 Z M 49.632812 6.386719 L 49.320312 7.042969 L 49.015625 7.679688 C 49.367188 7.847656 49.71875 8.023438 50.0625 8.203125 L 50.390625 7.578125 L 50.726562 6.933594 C 50.367188 6.742188 50 6.558594 49.632812 6.386719 Z M 22.640625 6.347656 L 22.367188 5.695312 C 22.308594 5.722656 22.246094 5.746094 22.183594 5.773438 C 21.875 5.90625 21.558594 6.042969 21.25 6.1875 L 21.542969 6.828125 L 21.847656 7.488281 C 22.144531 7.351562 22.445312 7.21875 22.742188 7.09375 C 22.800781 7.070312 22.859375 7.046875 22.917969 7.019531 Z M 46.9375 5.242188 L 46.683594 5.921875 L 46.433594 6.585938 C 46.800781 6.722656 47.164062 6.863281 47.523438 7.011719 L 47.792969 6.359375 L 48.074219 5.6875 C 47.699219 5.535156 47.316406 5.382812 46.933594 5.242188 Z M 25.398438 5.5625 L 25.335938 5.367188 L 25.121094 4.691406 C 24.734375 4.8125 24.34375 4.945312 23.960938 5.082031 L 24.203125 5.75 L 24.445312 6.429688 C 24.6875 6.34375 24.9375 6.261719 25.183594 6.179688 C 25.304688 6.136719 25.429688 6.097656 25.554688 6.058594 Z M 44.148438 4.339844 L 43.957031 5.039062 L 43.765625 5.722656 C 44.140625 5.824219 44.519531 5.9375 44.886719 6.054688 L 45.101562 5.375 L 45.320312 4.6875 C 44.929688 4.5625 44.539062 4.449219 44.148438 4.339844 Z M 28.105469 4.625 L 27.953125 3.933594 C 27.554688 4.019531 27.15625 4.117188 26.765625 4.21875 L 26.941406 4.90625 L 27.125 5.605469 C 27.5 5.507812 27.882812 5.417969 28.261719 5.332031 Z M 41.976562 3.816406 C 41.75 3.773438 41.519531 3.726562 41.292969 3.6875 L 41.164062 4.394531 L 41.035156 5.097656 C 41.25 5.136719 41.472656 5.179688 41.6875 5.222656 C 41.851562 5.257812 42.015625 5.292969 42.179688 5.328125 L 42.332031 4.632812 L 42.488281 3.925781 C 42.316406 3.890625 42.144531 3.851562 41.972656 3.816406 Z M 30.929688 4.132812 L 30.835938 3.425781 C 30.433594 3.476562 30.027344 3.539062 29.628906 3.605469 L 29.75 4.308594 L 29.867188 5.019531 C 30.25 4.953125 30.640625 4.894531 31.023438 4.847656 Z M 38.390625 3.285156 L 38.324219 4.003906 L 38.253906 4.714844 C 38.640625 4.75 39.03125 4.792969 39.417969 4.84375 L 39.507812 4.136719 L 39.601562 3.421875 C 39.199219 3.367188 38.792969 3.324219 38.386719 3.285156 Z M 33.785156 3.886719 L 33.753906 3.167969 C 33.351562 3.1875 32.941406 3.210938 32.535156 3.246094 L 32.59375 3.957031 L 32.652344 4.675781 C 33.035156 4.644531 33.429688 4.621094 33.816406 4.601562 Z M 35.464844 3.136719 L 35.460938 3.855469 L 35.460938 3.859375 L 35.453125 4.574219 C 35.820312 4.574219 36.191406 4.585938 36.558594 4.597656 L 36.621094 4.601562 L 36.683594 3.171875 C 36.277344 3.152344 35.867188 3.140625 35.460938 3.136719 Z M 35.464844 3.136719 " fill-opacity="1" fill-rule="nonzero"/><g clip-path="url(#3d967ec512)"><path fill="#000000" d="M 140.875 69.777344 L 200.613281 69.777344 L 200.613281 87.515625 L 140.875 87.515625 Z M 140.875 69.777344 " fill-opacity="1" fill-rule="nonzero"/></g><g fill="#ffffff" fill-opacity="1"><g transform="translate(43.963684, 63.035818)"><g><path d="M 2.046875 -28.453125 L 11.390625 -28.453125 C 12.503906 -28.453125 13.601562 -28.347656 14.6875 -28.140625 C 15.769531 -27.941406 16.753906 -27.566406 17.640625 -27.015625 C 18.523438 -26.472656 19.226562 -25.679688 19.75 -24.640625 C 20.28125 -23.609375 20.546875 -22.253906 20.546875 -20.578125 L 20.546875 -19.84375 C 20.546875 -18.550781 20.289062 -17.492188 19.78125 -16.671875 C 19.269531 -15.847656 18.597656 -15.191406 17.765625 -14.703125 C 18.785156 -14.210938 19.625 -13.503906 20.28125 -12.578125 C 20.9375 -11.660156 21.265625 -10.4375 21.265625 -8.90625 L 21.265625 -8.171875 C 21.265625 -6.441406 20.984375 -5.035156 20.421875 -3.953125 C 19.867188 -2.867188 19.125 -2.039062 18.1875 -1.46875 C 17.25 -0.90625 16.210938 -0.519531 15.078125 -0.3125 C 13.953125 -0.101562 12.816406 0 11.671875 0 L 2.046875 0 Z M 11.859375 -11.96875 L 7.953125 -11.96875 L 7.953125 -5.109375 L 11.859375 -5.109375 C 12.421875 -5.109375 12.960938 -5.195312 13.484375 -5.375 C 14.003906 -5.5625 14.429688 -5.894531 14.765625 -6.375 C 15.109375 -6.863281 15.28125 -7.535156 15.28125 -8.390625 L 15.28125 -8.71875 C 15.28125 -9.59375 15.109375 -10.257812 14.765625 -10.71875 C 14.429688 -11.1875 14.003906 -11.507812 13.484375 -11.6875 C 12.960938 -11.875 12.421875 -11.96875 11.859375 -11.96875 Z M 11.34375 -23.34375 L 7.953125 -23.34375 L 7.953125 -17.109375 L 11.34375 -17.109375 C 11.851562 -17.109375 12.351562 -17.1875 12.84375 -17.34375 C 13.332031 -17.5 13.738281 -17.785156 14.0625 -18.203125 C 14.394531 -18.617188 14.5625 -19.21875 14.5625 -20 L 14.5625 -20.46875 C 14.5625 -21.25 14.394531 -21.84375 14.0625 -22.25 C 13.738281 -22.664062 13.332031 -22.953125 12.84375 -23.109375 C 12.351562 -23.265625 11.851562 -23.34375 11.34375 -23.34375 Z M 11.34375 -23.34375 "/></g></g></g><g fill="#ffffff" fill-opacity="1"><g transform="translate(66.98347, 63.035818)"><g><path d="M 12.265625 0.46875 C 8.585938 0.46875 5.859375 -0.628906 4.078125 -2.828125 C 2.304688 -5.023438 1.421875 -8.582031 1.421875 -13.5 L 1.421875 -14.953125 C 1.421875 -19.890625 2.304688 -23.453125 4.078125 -25.640625 C 5.859375 -27.835938 8.585938 -28.9375 12.265625 -28.9375 C 15.953125 -28.9375 18.679688 -27.835938 20.453125 -25.640625 C 22.234375 -23.453125 23.125 -19.890625 23.125 -14.953125 L 23.125 -13.5 C 23.125 -8.582031 22.234375 -5.023438 20.453125 -2.828125 C 18.679688 -0.628906 15.953125 0.46875 12.265625 0.46875 Z M 12.109375 -4.640625 L 12.4375 -4.640625 C 14.257812 -4.640625 15.492188 -5.40625 16.140625 -6.9375 C 16.785156 -8.46875 17.109375 -10.65625 17.109375 -13.5 L 17.109375 -14.953125 C 17.109375 -17.804688 16.785156 -20 16.140625 -21.53125 C 15.492188 -23.0625 14.257812 -23.828125 12.4375 -23.828125 L 12.109375 -23.828125 C 10.285156 -23.828125 9.046875 -23.0625 8.390625 -21.53125 C 7.734375 -20 7.40625 -17.804688 7.40625 -14.953125 L 7.40625 -13.5 C 7.40625 -10.65625 7.734375 -8.46875 8.390625 -6.9375 C 9.046875 -5.40625 10.285156 -4.640625 12.109375 -4.640625 Z M 12.109375 -4.640625 "/></g></g></g><g fill="#ffffff" fill-opacity="1"><g transform="translate(91.535482, 63.035818)"><g><path d="M 12.265625 0.46875 C 8.585938 0.46875 5.859375 -0.628906 4.078125 -2.828125 C 2.304688 -5.023438 1.421875 -8.582031 1.421875 -13.5 L 1.421875 -14.953125 C 1.421875 -19.890625 2.304688 -23.453125 4.078125 -25.640625 C 5.859375 -27.835938 8.585938 -28.9375 12.265625 -28.9375 C 15.953125 -28.9375 18.679688 -27.835938 20.453125 -25.640625 C 22.234375 -23.453125 23.125 -19.890625 23.125 -14.953125 L 23.125 -13.5 C 23.125 -8.582031 22.234375 -5.023438 20.453125 -2.828125 C 18.679688 -0.628906 15.953125 0.46875 12.265625 0.46875 Z M 12.109375 -4.640625 L 12.4375 -4.640625 C 14.257812 -4.640625 15.492188 -5.40625 16.140625 -6.9375 C 16.785156 -8.46875 17.109375 -10.65625 17.109375 -13.5 L 17.109375 -14.953125 C 17.109375 -17.804688 16.785156 -20 16.140625 -21.53125 C 15.492188 -23.0625 14.257812 -23.828125 12.4375 -23.828125 L 12.109375 -23.828125 C 10.285156 -23.828125 9.046875 -23.0625 8.390625 -21.53125 C 7.734375 -20 7.40625 -17.804688 7.40625 -14.953125 L 7.40625 -13.5 C 7.40625 -10.65625 7.734375 -8.46875 8.390625 -6.9375 C 9.046875 -5.40625 10.285156 -4.640625 12.109375 -4.640625 Z M 12.109375 -4.640625 "/></g></g></g><g fill="#ffffff" fill-opacity="1"><g transform="translate(116.087493, 63.035818)"><g><path d="M 7.953125 -28.453125 L 7.953125 -17.296875 L 14.953125 -28.453125 L 22.109375 -28.453125 L 14.125 -17.03125 L 22.109375 0 L 15.546875 0 L 10.359375 -11.640625 L 7.953125 -8.203125 L 7.953125 0 L 2.046875 0 L 2.046875 -28.453125 Z M 7.953125 -28.453125 "/></g></g></g><g fill="#ffffff" fill-opacity="1"><g transform="translate(138.888393, 63.035818)"><g><path d="M 23.9375 -18.203125 L 18.859375 0 L 12.84375 0 L 7.765625 -18.203125 L 7.953125 -12.515625 L 7.953125 0 L 2.046875 0 L 2.046875 -28.453125 L 10.765625 -28.453125 L 15.875 -10.25 L 20.9375 -28.453125 L 29.703125 -28.453125 L 29.703125 0 L 23.78125 0 L 23.78125 -12.515625 Z M 23.9375 -18.203125 "/></g></g></g><g fill="#ffffff" fill-opacity="1"><g transform="translate(170.590769, 63.035818)"><g><path d="M 2.046875 -28.453125 L 19.453125 -28.453125 L 19.453125 -23.34375 L 7.953125 -23.34375 L 7.953125 -17.078125 L 17.625 -17.078125 L 17.625 -11.96875 L 7.953125 -11.96875 L 7.953125 -5.109375 L 19.453125 -5.109375 L 19.453125 0 L 2.046875 0 Z M 2.046875 -28.453125 "/></g></g></g><g fill="#ffffff" fill-opacity="1"><g transform="translate(146.017156, 81.9265)"><g><path d="M 3.40625 0.171875 C 2.863281 0.171875 2.398438 0.101562 2.015625 -0.03125 C 1.640625 -0.175781 1.328125 -0.363281 1.078125 -0.59375 C 0.835938 -0.820312 0.660156 -1.078125 0.546875 -1.359375 C 0.429688 -1.648438 0.375 -1.941406 0.375 -2.234375 L 1.734375 -2.234375 C 1.734375 -2.003906 1.796875 -1.796875 1.921875 -1.609375 C 2.054688 -1.421875 2.25 -1.269531 2.5 -1.15625 C 2.75 -1.039062 3.050781 -0.984375 3.40625 -0.984375 C 4.507812 -0.984375 5.0625 -1.351562 5.0625 -2.09375 C 5.0625 -2.320312 4.988281 -2.507812 4.84375 -2.65625 C 4.707031 -2.800781 4.507812 -2.914062 4.25 -3 C 4 -3.09375 3.695312 -3.171875 3.34375 -3.234375 C 3.09375 -3.285156 2.835938 -3.347656 2.578125 -3.421875 C 2.316406 -3.492188 2.066406 -3.585938 1.828125 -3.703125 C 1.585938 -3.816406 1.375 -3.953125 1.1875 -4.109375 C 1 -4.265625 0.847656 -4.457031 0.734375 -4.6875 C 0.617188 -4.914062 0.5625 -5.1875 0.5625 -5.5 C 0.5625 -5.90625 0.660156 -6.269531 0.859375 -6.59375 C 1.054688 -6.914062 1.359375 -7.171875 1.765625 -7.359375 C 2.179688 -7.546875 2.710938 -7.640625 3.359375 -7.640625 C 3.984375 -7.640625 4.5 -7.546875 4.90625 -7.359375 C 5.320312 -7.171875 5.632812 -6.90625 5.84375 -6.5625 C 6.0625 -6.226562 6.171875 -5.835938 6.171875 -5.390625 L 4.796875 -5.390625 C 4.796875 -5.585938 4.742188 -5.765625 4.640625 -5.921875 C 4.546875 -6.078125 4.390625 -6.203125 4.171875 -6.296875 C 3.953125 -6.390625 3.675781 -6.4375 3.34375 -6.4375 C 3.0625 -6.4375 2.828125 -6.410156 2.640625 -6.359375 C 2.460938 -6.304688 2.320312 -6.234375 2.21875 -6.140625 C 2.113281 -6.046875 2.039062 -5.941406 2 -5.828125 C 1.957031 -5.722656 1.9375 -5.609375 1.9375 -5.484375 C 1.9375 -5.179688 2.085938 -4.945312 2.390625 -4.78125 C 2.703125 -4.613281 3.171875 -4.476562 3.796875 -4.375 C 4.140625 -4.3125 4.46875 -4.222656 4.78125 -4.109375 C 5.101562 -4.003906 5.390625 -3.863281 5.640625 -3.6875 C 5.890625 -3.519531 6.085938 -3.304688 6.234375 -3.046875 C 6.378906 -2.785156 6.453125 -2.46875 6.453125 -2.09375 C 6.453125 -1.601562 6.320312 -1.191406 6.0625 -0.859375 C 5.8125 -0.523438 5.457031 -0.269531 5 -0.09375 C 4.550781 0.0820312 4.019531 0.171875 3.40625 0.171875 Z M 3.40625 0.171875 "/></g></g></g><g fill="#ffffff" fill-opacity="1"><g transform="translate(154.499783, 81.9265)"><g><path d="M 3.8125 0 L 2.453125 0 L 2.453125 -6.25 L 0.234375 -6.25 L 0.234375 -7.453125 L 6.046875 -7.453125 L 6.046875 -6.25 L 3.8125 -6.25 Z M 3.8125 0 "/></g></g></g><g fill="#ffffff" fill-opacity="1"><g transform="translate(162.467177, 81.9265)"><g><path d="M 3.9375 0.171875 C 3.488281 0.171875 3.070312 0.0976562 2.6875 -0.046875 C 2.300781 -0.191406 1.960938 -0.394531 1.671875 -0.65625 C 1.378906 -0.925781 1.148438 -1.25 0.984375 -1.625 C 0.828125 -2 0.75 -2.421875 0.75 -2.890625 L 0.75 -7.453125 L 2.125 -7.453125 L 2.125 -2.984375 C 2.125 -2.628906 2.191406 -2.304688 2.328125 -2.015625 C 2.472656 -1.734375 2.679688 -1.507812 2.953125 -1.34375 C 3.222656 -1.175781 3.550781 -1.09375 3.9375 -1.09375 C 4.320312 -1.09375 4.648438 -1.175781 4.921875 -1.34375 C 5.191406 -1.507812 5.398438 -1.734375 5.546875 -2.015625 C 5.691406 -2.304688 5.765625 -2.628906 5.765625 -2.984375 L 5.765625 -7.453125 L 7.125 -7.453125 L 7.125 -2.890625 C 7.125 -2.441406 7.046875 -2.03125 6.890625 -1.65625 C 6.742188 -1.289062 6.53125 -0.96875 6.25 -0.6875 C 5.96875 -0.414062 5.628906 -0.203125 5.234375 -0.046875 C 4.847656 0.0976562 4.414062 0.171875 3.9375 0.171875 Z M 3.9375 0.171875 "/></g></g></g><g fill="#ffffff" fill-opacity="1"><g transform="translate(172.040571, 81.9265)"><g><path d="M 3.78125 0 L 0.890625 0 L 0.890625 -7.453125 L 3.765625 -7.453125 C 4.359375 -7.453125 4.894531 -7.363281 5.375 -7.1875 C 5.863281 -7.007812 6.285156 -6.753906 6.640625 -6.421875 C 6.992188 -6.097656 7.265625 -5.707031 7.453125 -5.25 C 7.640625 -4.800781 7.734375 -4.296875 7.734375 -3.734375 C 7.734375 -3.171875 7.640625 -2.660156 7.453125 -2.203125 C 7.265625 -1.742188 6.992188 -1.347656 6.640625 -1.015625 C 6.296875 -0.691406 5.878906 -0.441406 5.390625 -0.265625 C 4.910156 -0.0859375 4.375 0 3.78125 0 Z M 2.234375 -6.25 L 2.234375 -1.21875 L 3.734375 -1.21875 C 4.273438 -1.21875 4.742188 -1.316406 5.140625 -1.515625 C 5.535156 -1.722656 5.835938 -2.015625 6.046875 -2.390625 C 6.253906 -2.765625 6.359375 -3.207031 6.359375 -3.71875 C 6.359375 -4.21875 6.253906 -4.660156 6.046875 -5.046875 C 5.835938 -5.429688 5.535156 -5.726562 5.140625 -5.9375 C 4.753906 -6.144531 4.28125 -6.25 3.71875 -6.25 Z M 2.234375 -6.25 "/></g></g></g><g fill="#ffffff" fill-opacity="1"><g transform="translate(181.827727, 81.9265)"><g><path d="M 2.25 0 L 0.890625 0 L 0.890625 -7.453125 L 2.25 -7.453125 Z M 2.25 0 "/></g></g></g><g fill="#ffffff" fill-opacity="1"><g transform="translate(186.659867, 81.9265)"><g><path d="M 4.390625 0.15625 C 3.941406 0.15625 3.515625 0.09375 3.109375 -0.03125 C 2.710938 -0.164062 2.347656 -0.347656 2.015625 -0.578125 C 1.679688 -0.816406 1.390625 -1.097656 1.140625 -1.421875 C 0.890625 -1.753906 0.695312 -2.113281 0.5625 -2.5 C 0.425781 -2.894531 0.359375 -3.304688 0.359375 -3.734375 C 0.359375 -4.171875 0.425781 -4.582031 0.5625 -4.96875 C 0.695312 -5.363281 0.890625 -5.722656 1.140625 -6.046875 C 1.390625 -6.367188 1.679688 -6.648438 2.015625 -6.890625 C 2.347656 -7.128906 2.710938 -7.3125 3.109375 -7.4375 C 3.515625 -7.570312 3.941406 -7.640625 4.390625 -7.640625 C 4.828125 -7.640625 5.242188 -7.570312 5.640625 -7.4375 C 6.046875 -7.3125 6.414062 -7.128906 6.75 -6.890625 C 7.09375 -6.648438 7.382812 -6.367188 7.625 -6.046875 C 7.875 -5.722656 8.066406 -5.363281 8.203125 -4.96875 C 8.335938 -4.582031 8.40625 -4.171875 8.40625 -3.734375 C 8.40625 -3.304688 8.335938 -2.894531 8.203125 -2.5 C 8.066406 -2.113281 7.875 -1.753906 7.625 -1.421875 C 7.382812 -1.097656 7.09375 -0.816406 6.75 -0.578125 C 6.414062 -0.347656 6.046875 -0.164062 5.640625 -0.03125 C 5.242188 0.09375 4.828125 0.15625 4.390625 0.15625 Z M 4.390625 -1.09375 C 4.753906 -1.09375 5.097656 -1.15625 5.421875 -1.28125 C 5.742188 -1.414062 6.023438 -1.601562 6.265625 -1.84375 C 6.515625 -2.082031 6.707031 -2.363281 6.84375 -2.6875 C 6.976562 -3.007812 7.046875 -3.359375 7.046875 -3.734375 C 7.046875 -4.117188 6.976562 -4.472656 6.84375 -4.796875 C 6.707031 -5.117188 6.515625 -5.394531 6.265625 -5.625 C 6.023438 -5.863281 5.742188 -6.050781 5.421875 -6.1875 C 5.097656 -6.320312 4.753906 -6.390625 4.390625 -6.390625 C 4.015625 -6.390625 3.664062 -6.320312 3.34375 -6.1875 C 3.03125 -6.050781 2.75 -5.863281 2.5 -5.625 C 2.257812 -5.382812 2.070312 -5.101562 1.9375 -4.78125 C 1.800781 -4.46875 1.734375 -4.117188 1.734375 -3.734375 C 1.734375 -3.359375 1.800781 -3.007812 1.9375 -2.6875 C 2.070312 -2.363281 2.257812 -2.082031 2.5 -1.84375 C 2.75 -1.601562 3.03125 -1.414062 3.34375 -1.28125 C 3.664062 -1.15625 4.015625 -1.09375 4.390625 -1.09375 Z M 4.390625 -1.09375 "/></g></g></g><g fill="#ffffff" fill-opacity="1"><g transform="translate(66.021689, 81.797398)"><g><path d="M 3.15625 0.15625 C 2.65625 0.15625 2.226562 0.09375 1.875 -0.03125 C 1.519531 -0.164062 1.226562 -0.335938 1 -0.546875 C 0.78125 -0.765625 0.613281 -1.003906 0.5 -1.265625 C 0.394531 -1.535156 0.34375 -1.804688 0.34375 -2.078125 L 1.609375 -2.078125 C 1.609375 -1.859375 1.664062 -1.660156 1.78125 -1.484375 C 1.90625 -1.304688 2.082031 -1.164062 2.3125 -1.0625 C 2.539062 -0.957031 2.820312 -0.90625 3.15625 -0.90625 C 4.175781 -0.90625 4.6875 -1.25 4.6875 -1.9375 C 4.6875 -2.15625 4.617188 -2.328125 4.484375 -2.453125 C 4.359375 -2.585938 4.175781 -2.695312 3.9375 -2.78125 C 3.695312 -2.863281 3.414062 -2.9375 3.09375 -3 C 2.863281 -3.050781 2.628906 -3.109375 2.390625 -3.171875 C 2.148438 -3.242188 1.914062 -3.328125 1.6875 -3.421875 C 1.46875 -3.523438 1.269531 -3.648438 1.09375 -3.796875 C 0.914062 -3.953125 0.773438 -4.132812 0.671875 -4.34375 C 0.566406 -4.550781 0.515625 -4.800781 0.515625 -5.09375 C 0.515625 -5.46875 0.601562 -5.800781 0.78125 -6.09375 C 0.96875 -6.394531 1.253906 -6.632812 1.640625 -6.8125 C 2.023438 -6.988281 2.515625 -7.078125 3.109375 -7.078125 C 3.679688 -7.078125 4.160156 -6.988281 4.546875 -6.8125 C 4.929688 -6.644531 5.222656 -6.40625 5.421875 -6.09375 C 5.617188 -5.78125 5.71875 -5.414062 5.71875 -5 L 4.453125 -5 C 4.453125 -5.175781 4.398438 -5.335938 4.296875 -5.484375 C 4.203125 -5.628906 4.054688 -5.742188 3.859375 -5.828125 C 3.660156 -5.921875 3.40625 -5.96875 3.09375 -5.96875 C 2.832031 -5.96875 2.613281 -5.941406 2.4375 -5.890625 C 2.269531 -5.835938 2.140625 -5.769531 2.046875 -5.6875 C 1.953125 -5.601562 1.882812 -5.507812 1.84375 -5.40625 C 1.800781 -5.300781 1.78125 -5.195312 1.78125 -5.09375 C 1.78125 -4.800781 1.925781 -4.578125 2.21875 -4.421875 C 2.507812 -4.273438 2.941406 -4.15625 3.515625 -4.0625 C 3.835938 -4 4.144531 -3.914062 4.4375 -3.8125 C 4.726562 -3.71875 4.988281 -3.585938 5.21875 -3.421875 C 5.445312 -3.265625 5.628906 -3.0625 5.765625 -2.8125 C 5.898438 -2.570312 5.96875 -2.28125 5.96875 -1.9375 C 5.96875 -1.488281 5.851562 -1.109375 5.625 -0.796875 C 5.394531 -0.484375 5.066406 -0.242188 4.640625 -0.078125 C 4.222656 0.078125 3.726562 0.15625 3.15625 0.15625 Z M 3.15625 0.15625 "/></g></g></g><g fill="#ffffff" fill-opacity="1"><g transform="translate(78.367137, 81.797398)"><g><path d="M 4.0625 0 L 2.796875 0 L 2.796875 -2.625 L 0.078125 -6.90625 L 1.546875 -6.90625 L 3.4375 -3.75 L 5.296875 -6.90625 L 6.78125 -6.90625 L 4.0625 -2.640625 Z M 4.0625 0 "/></g></g></g><g fill="#ffffff" fill-opacity="1"><g transform="translate(91.286015, 81.797398)"><g><path d="M 2.09375 0 L 0.828125 0 L 0.828125 -6.90625 L 1.90625 -6.90625 L 5.671875 -2.078125 L 5.671875 -6.90625 L 6.9375 -6.90625 L 6.9375 0 L 5.859375 0 L 2.09375 -4.828125 Z M 2.09375 0 "/></g></g></g><g fill="#ffffff" fill-opacity="1"><g transform="translate(105.098015, 81.797398)"><g><path d="M 3.53125 0 L 2.28125 0 L 2.28125 -5.78125 L 0.21875 -5.78125 L 0.21875 -6.90625 L 5.59375 -6.90625 L 5.59375 -5.78125 L 3.53125 -5.78125 Z M 3.53125 0 "/></g></g></g><g fill="#ffffff" fill-opacity="1"><g transform="translate(116.966455, 81.797398)"><g><path d="M 7 0 L 5.65625 0 L 5.109375 -1.34375 L 1.9375 -1.34375 L 1.375 0 L 0.046875 0 L 2.921875 -6.921875 L 4.125 -6.921875 Z M 3.46875 -5.109375 L 2.359375 -2.390625 L 4.6875 -2.390625 L 3.5625 -5.109375 L 3.53125 -5.28125 L 3.515625 -5.28125 Z M 3.46875 -5.109375 "/></g></g></g><g fill="#ffffff" fill-opacity="1"><g transform="translate(130.068017, 81.797398)"><g><path d="M 1.59375 0 L 0.109375 0 L 2.6875 -3.609375 L 0.3125 -6.90625 L 1.8125 -6.90625 L 3.46875 -4.5 L 5.140625 -6.90625 L 6.640625 -6.90625 L 4.265625 -3.609375 L 6.859375 0 L 5.359375 0 L 3.46875 -2.734375 Z M 1.59375 0 "/></g></g></g></svg>